<?xml version="1.0" encoding="UTF-8"?>
<svg xmlns="http://www.w3.org/2000/svg" xmlns:xlink="http://www.w3.org/1999/xlink" width="208px" height="100px" viewBox="0 0 208 100" version="1.1">
<defs>
<linearGradient id="linear0" gradientUnits="userSpaceOnUse" x1="30.119" y1="23.8378" x2="-5.23809" y2="23.8378" gradientTransform="matrix(2.039216,0,0,2.040816,0,0)">
<stop offset="0" style="stop-color:rgb(77.254902%,65.490196%,5.882353%);stop-opacity:1;"/>
<stop offset="1" style="stop-color:rgb(77.254902%,65.490196%,5.882353%);stop-opacity:0;"/>
</linearGradient>
</defs>
<g id="surface1">
<path style=" stroke:none;fill-rule:nonzero;fill:rgb(77.254902%,65.490196%,5.882353%);fill-opacity:1;" d="M 118.171875 69.632812 C 116.976562 69.632812 115.957031 69.414062 115.113281 68.980469 C 114.285156 68.542969 113.570312 67.960938 112.972656 67.222656 L 114.5625 65.734375 C 115.066406 66.347656 115.617188 66.808594 116.214844 67.121094 C 116.828125 67.433594 117.519531 67.59375 118.292969 67.59375 C 119.207031 67.59375 119.890625 67.386719 120.355469 66.980469 C 120.816406 66.570312 121.046875 66.019531 121.046875 65.328125 C 121.046875 64.769531 120.882812 64.328125 120.558594 64 C 120.230469 63.671875 119.65625 63.429688 118.824219 63.265625 L 117.5625 63.039062 C 116.175781 62.78125 115.132812 62.328125 114.441406 61.671875 C 113.746094 61.019531 113.402344 60.121094 113.402344 58.980469 C 113.402344 58.355469 113.515625 57.789062 113.746094 57.285156 C 113.992188 56.769531 114.324219 56.339844 114.746094 56 C 115.179688 55.644531 115.707031 55.375 116.316406 55.183594 C 116.929688 54.992188 117.613281 54.898438 118.375 54.898438 C 119.449219 54.898438 120.382812 55.089844 121.171875 55.46875 C 121.957031 55.835938 122.632812 56.375 123.1875 57.082031 L 121.578125 58.511719 C 121.210938 58.035156 120.761719 57.652344 120.230469 57.367188 C 119.703125 57.082031 119.042969 56.9375 118.253906 56.9375 C 117.4375 56.9375 116.804688 57.101562 116.359375 57.429688 C 115.910156 57.753906 115.683594 58.230469 115.683594 58.855469 C 115.683594 59.457031 115.867188 59.90625 116.234375 60.203125 C 116.601562 60.488281 117.171875 60.707031 117.949219 60.855469 L 119.210938 61.121094 C 120.640625 61.394531 121.679688 61.855469 122.332031 62.511719 C 123 63.164062 123.332031 64.0625 123.332031 65.203125 C 123.332031 65.871094 123.214844 66.476562 122.984375 67.019531 C 122.753906 67.566406 122.414062 68.035156 121.964844 68.429688 C 121.53125 68.808594 120.992188 69.109375 120.355469 69.328125 C 119.714844 69.53125 118.988281 69.632812 118.171875 69.632812 Z M 126.097656 69.386719 L 126.097656 55.144531 L 135.214844 55.144531 L 135.214844 57.183594 L 128.402344 57.183594 L 128.402344 61.144531 L 134.582031 61.144531 L 134.582031 63.183594 L 128.402344 63.183594 L 128.402344 67.347656 L 135.214844 67.347656 L 135.214844 69.386719 Z M 140.492188 69.386719 L 138.1875 69.386719 L 138.1875 55.144531 L 144.324219 55.144531 C 145.601562 55.144531 146.609375 55.53125 147.34375 56.304688 C 148.078125 57.066406 148.441406 58.109375 148.441406 59.429688 C 148.441406 60.449219 148.207031 61.300781 147.730469 61.980469 C 147.265625 62.644531 146.582031 63.117188 145.671875 63.386719 L 148.75 69.386719 L 146.179688 69.386719 L 143.324219 63.632812 L 140.492188 63.632812 Z M 144.160156 61.695312 C 144.746094 61.695312 145.199219 61.542969 145.527344 61.246094 C 145.851562 60.933594 146.015625 60.488281 146.015625 59.917969 L 146.015625 58.9375 C 146.015625 58.367188 145.851562 57.933594 145.527344 57.632812 C 145.199219 57.320312 144.746094 57.164062 144.160156 57.164062 L 140.492188 57.164062 L 140.492188 61.695312 Z M 154.273438 69.386719 L 149.605469 55.144531 L 151.988281 55.144531 L 154.253906 62.183594 L 155.621094 67.144531 L 155.703125 67.144531 L 157.089844 62.183594 L 159.351562 55.144531 L 161.675781 55.144531 L 156.945312 69.386719 Z M 163.183594 69.386719 L 163.183594 67.511719 L 165.121094 67.511719 L 165.121094 57.019531 L 163.183594 57.019531 L 163.183594 55.144531 L 169.382812 55.144531 L 169.382812 57.019531 L 167.425781 57.019531 L 167.425781 67.511719 L 169.382812 67.511719 L 169.382812 69.386719 Z M 177.621094 69.632812 C 175.757812 69.632812 174.296875 69.007812 173.238281 67.753906 C 172.175781 66.488281 171.648438 64.660156 171.648438 62.265625 C 171.648438 61.066406 171.78125 60.015625 172.054688 59.101562 C 172.328125 58.191406 172.722656 57.421875 173.238281 56.796875 C 173.753906 56.171875 174.378906 55.699219 175.113281 55.386719 C 175.863281 55.0625 176.699219 54.898438 177.621094 54.898438 C 178.859375 54.898438 179.890625 55.171875 180.722656 55.714844 C 181.5625 56.257812 182.222656 57.0625 182.699219 58.121094 L 180.761719 59.183594 C 180.515625 58.503906 180.136719 57.964844 179.621094 57.570312 C 179.117188 57.164062 178.449219 56.960938 177.621094 56.960938 C 176.519531 56.960938 175.65625 57.332031 175.03125 58.082031 C 174.40625 58.828125 174.09375 59.863281 174.09375 61.183594 L 174.09375 63.347656 C 174.09375 64.667969 174.40625 65.699219 175.03125 66.449219 C 175.65625 67.199219 176.519531 67.570312 177.621094 67.570312 C 178.476562 67.570312 179.171875 67.355469 179.703125 66.917969 C 180.246094 66.46875 180.648438 65.898438 180.90625 65.203125 L 182.761719 66.328125 C 182.285156 67.359375 181.617188 68.171875 180.761719 68.753906 C 179.90625 69.339844 178.859375 69.632812 177.621094 69.632812 Z M 185.203125 69.386719 L 185.203125 55.144531 L 194.320312 55.144531 L 194.320312 57.183594 L 187.507812 57.183594 L 187.507812 61.144531 L 193.6875 61.144531 L 193.6875 63.183594 L 187.507812 63.183594 L 187.507812 67.347656 L 194.320312 67.347656 L 194.320312 69.386719 Z M 201.554688 69.632812 C 200.355469 69.632812 199.335938 69.414062 198.496094 68.980469 C 197.664062 68.542969 196.953125 67.960938 196.351562 67.222656 L 197.945312 65.734375 C 198.445312 66.347656 198.996094 66.808594 199.597656 67.121094 C 200.207031 67.433594 200.902344 67.59375 201.675781 67.59375 C 202.585938 67.59375 203.273438 67.386719 203.734375 66.980469 C 204.195312 66.570312 204.429688 66.019531 204.429688 65.328125 C 204.429688 64.769531 204.265625 64.328125 203.941406 64 C 203.613281 63.671875 203.035156 63.429688 202.207031 63.265625 L 200.941406 63.039062 C 199.554688 62.78125 198.515625 62.328125 197.820312 61.671875 C 197.128906 61.019531 196.78125 60.121094 196.78125 58.980469 C 196.78125 58.355469 196.898438 57.789062 197.128906 57.285156 C 197.371094 56.769531 197.707031 56.339844 198.128906 56 C 198.5625 55.644531 199.085938 55.375 199.699219 55.183594 C 200.308594 54.992188 200.996094 54.898438 201.757812 54.898438 C 202.832031 54.898438 203.761719 55.089844 204.550781 55.46875 C 205.339844 55.835938 206.011719 56.375 206.570312 57.082031 L 204.960938 58.511719 C 204.59375 58.035156 204.144531 57.652344 203.613281 57.367188 C 203.082031 57.082031 202.421875 56.9375 201.636719 56.9375 C 200.820312 56.9375 200.1875 57.101562 199.738281 57.429688 C 199.289062 57.753906 199.066406 58.230469 199.066406 58.855469 C 199.066406 59.457031 199.25 59.90625 199.617188 60.203125 C 199.984375 60.488281 200.554688 60.707031 201.328125 60.855469 L 202.59375 61.121094 C 204.023438 61.394531 205.0625 61.855469 205.714844 62.511719 C 206.378906 63.164062 206.714844 64.0625 206.714844 65.203125 C 206.714844 65.871094 206.597656 66.476562 206.367188 67.019531 C 206.132812 67.566406 205.796875 68.035156 205.347656 68.429688 C 204.910156 68.808594 204.375 69.109375 203.734375 69.328125 C 203.097656 69.53125 202.367188 69.632812 201.554688 69.632812 Z M 201.554688 69.632812 "/>
<path style=" stroke:none;fill-rule:nonzero;fill:rgb(77.254902%,65.490196%,5.882353%);fill-opacity:1;" d="M 122.402344 47.304688 C 119.753906 47.304688 117.703125 46.386719 116.253906 44.550781 C 114.808594 42.695312 114.082031 39.949219 114.082031 36.316406 C 114.082031 32.703125 114.808594 29.949219 116.253906 28.050781 C 117.703125 26.152344 119.753906 25.203125 122.402344 25.203125 C 124.117188 25.203125 125.554688 25.613281 126.71875 26.429688 C 127.898438 27.246094 128.816406 28.355469 129.46875 29.765625 L 127.972656 30.652344 C 127.503906 29.488281 126.789062 28.570312 125.828125 27.898438 C 124.890625 27.203125 123.75 26.855469 122.402344 26.855469 C 120.40625 26.855469 118.84375 27.570312 117.722656 29 C 116.601562 30.429688 116.042969 32.46875 116.042969 35.121094 L 116.042969 37.539062 C 116.042969 40.171875 116.601562 42.183594 117.722656 43.570312 C 118.84375 44.960938 120.40625 45.652344 122.402344 45.652344 C 123.832031 45.652344 125.023438 45.296875 125.984375 44.582031 C 126.941406 43.847656 127.65625 42.867188 128.125 41.644531 L 129.621094 42.53125 C 128.992188 44 128.0625 45.164062 126.839844 46.019531 C 125.617188 46.878906 124.136719 47.304688 122.402344 47.304688 Z M 134.0625 46.9375 L 134.0625 25.570312 L 135.898438 25.570312 L 135.898438 45.316406 L 145.320312 45.316406 L 145.320312 46.9375 Z M 149.089844 46.9375 L 149.089844 25.570312 L 161.570312 25.570312 L 161.570312 27.195312 L 150.925781 27.195312 L 150.925781 35.277344 L 161.050781 35.277344 L 161.050781 36.898438 L 150.925781 36.898438 L 150.925781 45.316406 L 161.570312 45.316406 L 161.570312 46.9375 Z M 180.019531 46.9375 L 177.695312 40.296875 L 168.609375 40.296875 L 166.285156 46.9375 L 164.449219 46.9375 L 172.007812 25.570312 L 174.363281 25.570312 L 181.949219 46.9375 Z M 173.199219 27.316406 L 173.078125 27.316406 L 169.070312 38.703125 L 177.207031 38.703125 Z M 187.636719 28.082031 L 187.546875 28.082031 L 187.546875 46.9375 L 185.769531 46.9375 L 185.769531 25.570312 L 188.066406 25.570312 L 199.292969 44.429688 L 199.382812 44.429688 L 199.382812 25.570312 L 201.15625 25.570312 L 201.15625 46.9375 L 198.863281 46.9375 Z M 187.636719 28.082031 "/>
<path style=" stroke:none;fill-rule:nonzero;fill:url(#linear0);" d="M 23.230469 70.171875 C 20.273438 70.171875 17.574219 69.671875 15.140625 68.667969 C 12.746094 67.625 10.679688 66.121094 8.941406 64.164062 C 7.242188 62.160156 5.917969 59.699219 4.960938 56.785156 C 4.046875 53.824219 3.589844 50.425781 3.589844 46.597656 C 3.589844 42.765625 4.046875 39.390625 4.960938 36.472656 C 5.917969 33.511719 7.242188 31.054688 8.941406 29.09375 C 10.679688 27.089844 12.746094 25.589844 15.140625 24.585938 C 17.574219 23.542969 20.273438 23.019531 23.230469 23.019531 C 26.1875 23.019531 28.863281 23.542969 31.257812 24.585938 C 33.691406 25.589844 35.757812 27.089844 37.457031 29.09375 C 39.195312 31.054688 40.523438 33.511719 41.4375 36.472656 C 42.394531 39.390625 42.871094 42.765625 42.871094 46.597656 C 42.871094 50.425781 42.394531 53.824219 41.4375 56.785156 C 40.523438 59.699219 39.195312 62.160156 37.457031 64.164062 C 35.757812 66.121094 33.691406 67.625 31.257812 68.667969 C 28.863281 69.671875 26.1875 70.171875 23.230469 70.171875 Z M 23.230469 63.574219 C 24.972656 63.574219 26.558594 63.269531 27.996094 62.660156 C 29.472656 62.050781 30.714844 61.179688 31.714844 60.050781 C 32.757812 58.875 33.5625 57.457031 34.128906 55.804688 C 34.695312 54.148438 34.976562 52.277344 34.976562 50.1875 L 34.976562 43.003906 C 34.976562 40.914062 34.695312 39.042969 34.128906 37.386719 C 33.5625 35.734375 32.757812 34.339844 31.714844 33.207031 C 30.714844 32.03125 29.472656 31.140625 27.996094 30.53125 C 26.558594 29.921875 24.972656 29.617188 23.230469 29.617188 C 21.445312 29.617188 19.835938 29.921875 18.402344 30.53125 C 16.964844 31.140625 15.726562 32.03125 14.683594 33.207031 C 13.683594 34.339844 12.898438 35.734375 12.332031 37.386719 C 11.769531 39.042969 11.484375 40.914062 11.484375 43.003906 L 11.484375 50.1875 C 11.484375 52.277344 11.769531 54.148438 12.332031 55.804688 C 12.898438 57.457031 13.683594 58.875 14.683594 60.050781 C 15.726562 61.179688 16.964844 62.050781 18.402344 62.660156 C 19.835938 63.269531 21.445312 63.574219 23.230469 63.574219 Z M 54.546875 44.179688 L 49.523438 34.515625 L 49.328125 34.515625 L 49.328125 69.386719 L 42.28125 69.386719 L 42.28125 23.804688 L 50.5 23.804688 L 65.378906 49.011719 L 70.40625 58.675781 L 70.601562 58.675781 L 70.601562 23.804688 L 77.648438 23.804688 L 77.648438 69.386719 L 69.425781 69.386719 Z M 79.074219 69.386719 L 79.074219 23.804688 L 108.242188 23.804688 L 108.242188 30.335938 L 86.449219 30.335938 L 86.449219 43.003906 L 106.222656 43.003906 L 106.222656 49.535156 L 86.449219 49.535156 L 86.449219 62.855469 L 108.242188 62.855469 L 108.242188 69.386719 Z M 79.074219 69.386719 "/>
</g>
</svg>
