<svg width="102" height="49" viewBox="0 0 102 49" fill="none" xmlns="http://www.w3.org/2000/svg">
<path d="M57.95 34.12C57.3633 34.12 56.8633 34.0133 56.45 33.8C56.0433 33.5867 55.6933 33.3 55.4 32.94L56.18 32.21C56.4267 32.51 56.6967 32.7367 56.99 32.89C57.29 33.0433 57.63 33.12 58.01 33.12C58.4567 33.12 58.7933 33.02 59.02 32.82C59.2467 32.62 59.36 32.35 59.36 32.01C59.36 31.7367 59.28 31.52 59.12 31.36C58.96 31.2 58.6767 31.08 58.27 31L57.65 30.89C56.97 30.7633 56.46 30.54 56.12 30.22C55.78 29.9 55.61 29.46 55.61 28.9C55.61 28.5933 55.6667 28.3167 55.78 28.07C55.9 27.8167 56.0633 27.6067 56.27 27.44C56.4833 27.2667 56.74 27.1333 57.04 27.04C57.34 26.9467 57.6767 26.9 58.05 26.9C58.5767 26.9 59.0333 26.9933 59.42 27.18C59.8067 27.36 60.1367 27.6233 60.41 27.97L59.62 28.67C59.44 28.4367 59.22 28.25 58.96 28.11C58.7 27.97 58.3767 27.9 57.99 27.9C57.59 27.9 57.28 27.98 57.06 28.14C56.84 28.3 56.73 28.5333 56.73 28.84C56.73 29.1333 56.82 29.3533 57 29.5C57.18 29.64 57.46 29.7467 57.84 29.82L58.46 29.95C59.16 30.0833 59.67 30.31 59.99 30.63C60.3167 30.95 60.48 31.39 60.48 31.95C60.48 32.2767 60.4233 32.5733 60.31 32.84C60.1967 33.1067 60.03 33.3367 59.81 33.53C59.5967 33.7167 59.3333 33.8633 59.02 33.97C58.7067 34.07 58.35 34.12 57.95 34.12ZM61.8366 34V27.02H66.3066V28.02H62.9666V29.96H65.9966V30.96H62.9666V33H66.3066V34H61.8366ZM68.8943 34H67.7643V27.02H70.7743C71.401 27.02 71.8943 27.21 72.2543 27.59C72.6143 27.9633 72.7943 28.4733 72.7943 29.12C72.7943 29.62 72.6776 30.0367 72.4443 30.37C72.2176 30.6967 71.881 30.9267 71.4343 31.06L72.9443 34H71.6843L70.2843 31.18H68.8943V34ZM70.6943 30.23C70.981 30.23 71.2043 30.1567 71.3643 30.01C71.5243 29.8567 71.6043 29.64 71.6043 29.36V28.88C71.6043 28.6 71.5243 28.3867 71.3643 28.24C71.2043 28.0867 70.981 28.01 70.6943 28.01H68.8943V30.23H70.6943ZM75.6536 34L73.3636 27.02H74.5336L75.6436 30.47L76.3136 32.9H76.3536L77.0336 30.47L78.1436 27.02H79.2836L76.9636 34H75.6536ZM80.0229 34V33.08H80.9729V27.94H80.0229V27.02H83.0629V27.94H82.1029V33.08H83.0629V34H80.0229ZM87.103 34.12C86.1897 34.12 85.473 33.8133 84.953 33.2C84.433 32.58 84.173 31.6833 84.173 30.51C84.173 29.9233 84.2397 29.4067 84.373 28.96C84.5064 28.5133 84.6997 28.1367 84.953 27.83C85.2064 27.5233 85.513 27.2933 85.873 27.14C86.2397 26.98 86.6497 26.9 87.103 26.9C87.7097 26.9 88.2164 27.0333 88.623 27.3C89.0364 27.5667 89.3597 27.96 89.593 28.48L88.643 29C88.523 28.6667 88.3364 28.4033 88.083 28.21C87.8364 28.01 87.5097 27.91 87.103 27.91C86.563 27.91 86.1397 28.0933 85.833 28.46C85.5264 28.8267 85.373 29.3333 85.373 29.98V31.04C85.373 31.6867 85.5264 32.1933 85.833 32.56C86.1397 32.9267 86.563 33.11 87.103 33.11C87.523 33.11 87.863 33.0033 88.123 32.79C88.3897 32.57 88.5864 32.29 88.713 31.95L89.623 32.5C89.3897 33.0067 89.063 33.4033 88.643 33.69C88.223 33.9767 87.7097 34.12 87.103 34.12ZM90.8209 34V27.02H95.2909V28.02H91.9509V29.96H94.9809V30.96H91.9509V33H95.2909V34H90.8209ZM98.8387 34.12C98.252 34.12 97.752 34.0133 97.3387 33.8C96.932 33.5867 96.582 33.3 96.2887 32.94L97.0687 32.21C97.3153 32.51 97.5853 32.7367 97.8787 32.89C98.1787 33.0433 98.5187 33.12 98.8987 33.12C99.3453 33.12 99.682 33.02 99.9087 32.82C100.135 32.62 100.249 32.35 100.249 32.01C100.249 31.7367 100.169 31.52 100.009 31.36C99.8487 31.2 99.5653 31.08 99.1587 31L98.5387 30.89C97.8587 30.7633 97.3487 30.54 97.0087 30.22C96.6687 29.9 96.4987 29.46 96.4987 28.9C96.4987 28.5933 96.5553 28.3167 96.6687 28.07C96.7887 27.8167 96.952 27.6067 97.1587 27.44C97.372 27.2667 97.6287 27.1333 97.9287 27.04C98.2287 26.9467 98.5653 26.9 98.9387 26.9C99.4653 26.9 99.922 26.9933 100.309 27.18C100.695 27.36 101.025 27.6233 101.299 27.97L100.509 28.67C100.329 28.4367 100.109 28.25 99.8487 28.11C99.5887 27.97 99.2653 27.9 98.8787 27.9C98.4787 27.9 98.1687 27.98 97.9487 28.14C97.7287 28.3 97.6187 28.5333 97.6187 28.84C97.6187 29.1333 97.7087 29.3533 97.8887 29.5C98.0687 29.64 98.3487 29.7467 98.7287 29.82L99.3487 29.95C100.049 30.0833 100.559 30.31 100.879 30.63C101.205 30.95 101.369 31.39 101.369 31.95C101.369 32.2767 101.312 32.5733 101.199 32.84C101.085 33.1067 100.919 33.3367 100.699 33.53C100.485 33.7167 100.222 33.8633 99.9087 33.97C99.5953 34.07 99.2387 34.12 98.8387 34.12Z" fill="#C5A70F"/>
<path d="M60.025 23.18C58.725 23.18 57.72 22.73 57.01 21.83C56.3 20.92 55.945 19.575 55.945 17.795C55.945 16.025 56.3 14.675 57.01 13.745C57.72 12.815 58.725 12.35 60.025 12.35C60.865 12.35 61.57 12.55 62.14 12.95C62.72 13.35 63.17 13.895 63.49 14.585L62.755 15.02C62.525 14.45 62.175 14 61.705 13.67C61.245 13.33 60.685 13.16 60.025 13.16C59.045 13.16 58.28 13.51 57.73 14.21C57.18 14.91 56.905 15.91 56.905 17.21V18.395C56.905 19.685 57.18 20.67 57.73 21.35C58.28 22.03 59.045 22.37 60.025 22.37C60.725 22.37 61.31 22.195 61.78 21.845C62.25 21.485 62.6 21.005 62.83 20.405L63.565 20.84C63.255 21.56 62.8 22.13 62.2 22.55C61.6 22.97 60.875 23.18 60.025 23.18ZM65.7428 23V12.53H66.6428V22.205H71.2628V23H65.7428ZM73.111 23V12.53H79.231V13.325H74.011V17.285H78.976V18.08H74.011V22.205H79.231V23H73.111ZM88.2793 23L87.1393 19.745H82.6843L81.5443 23H80.6443L84.3493 12.53H85.5043L89.2243 23H88.2793ZM84.9343 13.385H84.8743L82.9093 18.965H86.8993L84.9343 13.385ZM92.0143 13.76H91.9693V23H91.0993V12.53H92.2243L97.7293 21.77H97.7743V12.53H98.6443V23H97.5193L92.0143 13.76Z" fill="#C5A70F"/>
<path d="M11.392 34.384C9.94133 34.384 8.61867 34.1387 7.424 33.648C6.25067 33.136 5.23733 32.4 4.384 31.44C3.552 30.4587 2.90133 29.2533 2.432 27.824C1.984 26.3733 1.76 24.7093 1.76 22.832C1.76 20.9547 1.984 19.3013 2.432 17.872C2.90133 16.4213 3.552 15.216 4.384 14.256C5.23733 13.2747 6.25067 12.5387 7.424 12.048C8.61867 11.536 9.94133 11.28 11.392 11.28C12.8427 11.28 14.1547 11.536 15.328 12.048C16.5227 12.5387 17.536 13.2747 18.368 14.256C19.2213 15.216 19.872 16.4213 20.32 17.872C20.7893 19.3013 21.024 20.9547 21.024 22.832C21.024 24.7093 20.7893 26.3733 20.32 27.824C19.872 29.2533 19.2213 30.4587 18.368 31.44C17.536 32.4 16.5227 33.136 15.328 33.648C14.1547 34.1387 12.8427 34.384 11.392 34.384ZM11.392 31.152C12.2453 31.152 13.024 31.0027 13.728 30.704C14.4533 30.4053 15.0613 29.9787 15.552 29.424C16.064 28.848 16.4587 28.1547 16.736 27.344C17.0133 26.5333 17.152 25.616 17.152 24.592V21.072C17.152 20.048 17.0133 19.1307 16.736 18.32C16.4587 17.5093 16.064 16.8267 15.552 16.272C15.0613 15.696 14.4533 15.2587 13.728 14.96C13.024 14.6613 12.2453 14.512 11.392 14.512C10.5173 14.512 9.728 14.6613 9.024 14.96C8.32 15.2587 7.712 15.696 7.2 16.272C6.70933 16.8267 6.32533 17.5093 6.048 18.32C5.77067 19.1307 5.632 20.048 5.632 21.072V24.592C5.632 25.616 5.77067 26.5333 6.048 27.344C6.32533 28.1547 6.70933 28.848 7.2 29.424C7.712 29.9787 8.32 30.4053 9.024 30.704C9.728 31.0027 10.5173 31.152 11.392 31.152ZM26.7493 21.648L24.2853 16.912H24.1893V34H20.7333V11.664H24.7653L32.0613 24.016L34.5253 28.752H34.6213V11.664H38.0773V34H34.0453L26.7493 21.648ZM38.777 34V11.664H53.081V14.864H42.393V21.072H52.089V24.272H42.393V30.8H53.081V34H38.777Z" fill="url(#paint0_linear_1_10)"/>
<defs>
<linearGradient id="paint0_linear_1_10" x1="30.119" y1="23.8378" x2="-5.23809" y2="23.8378" gradientUnits="userSpaceOnUse">
<stop stop-color="#C5A70F"/>
<stop offset="1" stop-color="#C5A70F" stop-opacity="0"/>
</linearGradient>
</defs>
</svg>
